<svg version="1.2" xmlns="http://www.w3.org/2000/svg" viewBox="0 0 1726 1297" width="1726" height="1297"><defs><clipPath clipPathUnits="userSpaceOnUse" id="cp1"><path d="m251.16 994.15c-57.42 57.43-150.51 57.41-207.92 0-57.41-57.4-57.42-150.49 0-207.92 57.41-57.41 150.5-57.39 207.91 0.02 57.41 57.41 57.42 150.5 0.01 207.9zm-43.95-43.94c33.15-33.15 33.15-86.88 0-120.03-33.14-33.15-86.87-33.15-120.02 0-33.15 33.15-33.16 86.89-0.01 120.04 33.14 33.15 86.89 33.13 120.03-0.01z"/></clipPath><clipPath clipPathUnits="userSpaceOnUse" id="cp2"><path d="m1474.84 223.84c57.42-57.42 150.51-57.4 207.92 0 57.41 57.41 57.42 150.5 0 207.93-57.41 57.41-150.5 57.39-207.91-0.02-57.41-57.41-57.42-150.5-0.01-207.91zm43.95 43.95c-33.15 33.15-33.15 86.88 0 120.03 33.14 33.15 86.87 33.15 120.02 0 33.15-33.15 33.16-86.89 0.01-120.04-33.14-33.15-86.89-33.13-120.03 0.01z"/></clipPath><clipPath clipPathUnits="userSpaceOnUse" id="cp3"><path d="m759.03 1045.32c57.43-57.43 150.52-57.41 207.92 0 57.41 57.41 57.43 150.5 0 207.92-57.4 57.41-150.49 57.39-207.9-0.02-57.41-57.4-57.43-150.49-0.02-207.9zm43.95 43.95c-33.15 33.14-33.15 86.87 0 120.02 33.15 33.15 86.88 33.15 120.03 0 33.14-33.15 33.16-86.89 0.01-120.04-33.15-33.15-86.89-33.13-120.04 0.02z"/></clipPath></defs><style>.a{fill:#fed047}.b{fill:none;stroke:#005264;stroke-width:5.4}.c{fill:#005264}.d{fill:none;stroke:#005264;stroke-width:2.1}.e{fill:none}.f{fill:#42b9a8}.g{fill:none;stroke:#fed047;stroke-width:14}.h{fill:none;stroke:#005264;stroke-width:8.4}.i{fill:none;stroke:#005264;stroke-linecap:round;stroke-linejoin:round;stroke-width:2.1}.j{fill:none;stroke:#42b9a8;stroke-width:14}</style><path class="a" d="m873.1 1046.3c0-54.5 44.2-98.7 98.7-98.7 54.5 0 98.7 44.2 98.7 98.7 0 54.5-44.2 98.7-98.7 98.7-54.5 0-98.7-44.2-98.7-98.7z"/><path class="b" d="m349.2 611.3l25.2-25.2"/><path class="b" d="m349.2 586.1l25.2 25.2"/><path class="b" d="m804 960.2l25.2-25.2"/><path class="b" d="m804 935l25.2 25.2"/><path class="b" d="m631.1 226.8l25.2-25.2"/><path class="b" d="m631.1 201.6l25.2 25.2"/><path class="b" d="m177.4 405.9l25.1-25.2"/><path class="b" d="m177.4 380.7l25.1 25.2"/><path class="c" d="m412.4 666.9c0-1.6 1.2-2.8 2.8-2.8 1.5 0 2.8 1.2 2.8 2.8 0 1.5-1.3 2.8-2.8 2.8-1.6 0-2.8-1.3-2.8-2.8z"/><path class="c" d="m387.1 666.9c0-1.6 1.2-2.8 2.8-2.8 1.5 0 2.8 1.2 2.8 2.8 0 1.5-1.3 2.8-2.8 2.8-1.6 0-2.8-1.3-2.8-2.8z"/><path class="c" d="m361.8 666.9c0-1.6 1.2-2.8 2.8-2.8 1.5 0 2.8 1.2 2.8 2.8 0 1.5-1.3 2.8-2.8 2.8-1.6 0-2.8-1.3-2.8-2.8z"/><path class="c" d="m336.5 666.9c0-1.6 1.2-2.8 2.8-2.8 1.5 0 2.8 1.2 2.8 2.8 0 1.5-1.3 2.8-2.8 2.8-1.6 0-2.8-1.3-2.8-2.8z"/><path class="c" d="m311.2 666.9c0-1.6 1.2-2.8 2.8-2.8 1.5 0 2.8 1.2 2.8 2.8 0 1.5-1.3 2.8-2.8 2.8-1.6 0-2.8-1.3-2.8-2.8z"/><path class="c" d="m285.9 666.9c0-1.6 1.2-2.8 2.8-2.8 1.5 0 2.8 1.2 2.8 2.8 0 1.5-1.3 2.8-2.8 2.8-1.6 0-2.8-1.3-2.8-2.8z"/><path class="c" d="m412.4 682.9c0-1.6 1.2-2.9 2.8-2.9 1.5 0 2.8 1.3 2.8 2.9 0 1.5-1.3 2.8-2.8 2.8-1.6 0-2.8-1.3-2.8-2.8z"/><path class="c" d="m387.1 682.9c0-1.6 1.2-2.9 2.8-2.9 1.5 0 2.8 1.3 2.8 2.9 0 1.5-1.3 2.8-2.8 2.8-1.6 0-2.8-1.3-2.8-2.8z"/><path class="c" d="m361.8 682.9c0-1.6 1.2-2.9 2.8-2.9 1.5 0 2.8 1.3 2.8 2.9 0 1.5-1.3 2.8-2.8 2.8-1.6 0-2.8-1.3-2.8-2.8z"/><path class="c" d="m336.5 682.9c0-1.6 1.2-2.9 2.8-2.9 1.5 0 2.8 1.3 2.8 2.9 0 1.5-1.3 2.8-2.8 2.8-1.6 0-2.8-1.3-2.8-2.8z"/><path class="c" d="m311.2 682.9c0-1.6 1.2-2.9 2.8-2.9 1.5 0 2.8 1.3 2.8 2.9 0 1.5-1.3 2.8-2.8 2.8-1.6 0-2.8-1.3-2.8-2.8z"/><path class="c" d="m285.9 682.9c0-1.6 1.2-2.9 2.8-2.9 1.5 0 2.8 1.3 2.8 2.9 0 1.5-1.3 2.8-2.8 2.8-1.6 0-2.8-1.3-2.8-2.8z"/><path class="c" d="m412.4 698.8c0-1.5 1.2-2.8 2.8-2.8 1.5 0 2.8 1.3 2.8 2.8 0 1.6-1.3 2.8-2.8 2.8-1.6 0-2.8-1.2-2.8-2.8z"/><path class="c" d="m387.1 698.8c0-1.5 1.2-2.8 2.8-2.8 1.5 0 2.8 1.3 2.8 2.8 0 1.6-1.3 2.8-2.8 2.8-1.6 0-2.8-1.2-2.8-2.8z"/><path class="c" d="m361.8 698.8c0-1.5 1.2-2.8 2.8-2.8 1.5 0 2.8 1.3 2.8 2.8 0 1.6-1.3 2.8-2.8 2.8-1.6 0-2.8-1.2-2.8-2.8z"/><path class="c" d="m336.5 698.8c0-1.5 1.2-2.8 2.8-2.8 1.5 0 2.8 1.3 2.8 2.8 0 1.6-1.3 2.8-2.8 2.8-1.6 0-2.8-1.2-2.8-2.8z"/><path class="c" d="m311.2 698.8c0-1.5 1.2-2.8 2.8-2.8 1.5 0 2.8 1.3 2.8 2.8 0 1.6-1.3 2.8-2.8 2.8-1.6 0-2.8-1.2-2.8-2.8z"/><path class="c" d="m285.9 698.8c0-1.5 1.2-2.8 2.8-2.8 1.5 0 2.8 1.3 2.8 2.8 0 1.6-1.3 2.8-2.8 2.8-1.6 0-2.8-1.2-2.8-2.8z"/><path class="c" d="m948.9 303.4c1.6 0 2.8 1.2 2.8 2.8 0 1.5-1.2 2.8-2.8 2.8-1.5 0-2.8-1.3-2.8-2.8 0-1.6 1.3-2.8 2.8-2.8z"/><path class="c" d="m948.9 278.1c1.6 0 2.8 1.2 2.8 2.8 0 1.5-1.2 2.8-2.8 2.8-1.5 0-2.8-1.3-2.8-2.8 0-1.6 1.3-2.8 2.8-2.8z"/><path class="c" d="m948.9 252.8c1.6 0 2.8 1.2 2.8 2.8 0 1.5-1.2 2.8-2.8 2.8-1.5 0-2.8-1.3-2.8-2.8 0-1.6 1.3-2.8 2.8-2.8z"/><path class="c" d="m948.9 227.5c1.6 0 2.8 1.2 2.8 2.8 0 1.5-1.2 2.8-2.8 2.8-1.5 0-2.8-1.3-2.8-2.8 0-1.6 1.3-2.8 2.8-2.8z"/><path class="c" d="m948.9 202.2c1.6 0 2.8 1.2 2.8 2.8 0 1.5-1.2 2.8-2.8 2.8-1.5 0-2.8-1.3-2.8-2.8 0-1.6 1.3-2.8 2.8-2.8z"/><path class="c" d="m948.9 176.9c1.6 0 2.8 1.2 2.8 2.8 0 1.5-1.2 2.8-2.8 2.8-1.5 0-2.8-1.3-2.8-2.8 0-1.6 1.3-2.8 2.8-2.8z"/><path class="c" d="m605.1 1092.9c1.6 0 2.8 1.3 2.8 2.8 0 1.6-1.2 2.8-2.8 2.8-1.5 0-2.8-1.2-2.8-2.8 0-1.5 1.3-2.8 2.8-2.8z"/><path class="c" d="m605.1 1067.6c1.6 0 2.8 1.3 2.8 2.8 0 1.6-1.2 2.8-2.8 2.8-1.5 0-2.8-1.2-2.8-2.8 0-1.5 1.3-2.8 2.8-2.8z"/><path class="c" d="m605.1 1042.3c1.6 0 2.8 1.3 2.8 2.8 0 1.6-1.2 2.8-2.8 2.8-1.5 0-2.8-1.2-2.8-2.8 0-1.5 1.3-2.8 2.8-2.8z"/><path class="c" d="m605.1 1017c1.6 0 2.8 1.3 2.8 2.8 0 1.6-1.2 2.8-2.8 2.8-1.5 0-2.8-1.2-2.8-2.8 0-1.5 1.3-2.8 2.8-2.8z"/><path class="c" d="m605.1 991.7c1.6 0 2.8 1.3 2.8 2.8 0 1.6-1.2 2.8-2.8 2.8-1.5 0-2.8-1.2-2.8-2.8 0-1.5 1.3-2.8 2.8-2.8z"/><path class="c" d="m605.1 966.4c1.6 0 2.8 1.3 2.8 2.8 0 1.6-1.2 2.8-2.8 2.8-1.5 0-2.8-1.2-2.8-2.8 0-1.5 1.3-2.8 2.8-2.8z"/><path class="c" d="m602.7 133.1c0-1.6 1.3-2.8 2.8-2.8 1.6 0 2.9 1.2 2.9 2.8 0 1.5-1.3 2.8-2.9 2.8-1.5 0-2.8-1.3-2.8-2.8z"/><path class="c" d="m577.4 133.1c0-1.6 1.3-2.8 2.9-2.8 1.5 0 2.8 1.2 2.8 2.8 0 1.5-1.3 2.8-2.8 2.8-1.6 0-2.9-1.3-2.9-2.8z"/><path class="c" d="m552.1 133.1c0-1.6 1.3-2.8 2.9-2.8 1.5 0 2.8 1.2 2.8 2.8 0 1.5-1.3 2.8-2.8 2.8-1.6 0-2.9-1.3-2.9-2.8z"/><path class="c" d="m526.9 133.1c0-1.6 1.2-2.8 2.8-2.8 1.5 0 2.8 1.2 2.8 2.8 0 1.5-1.3 2.8-2.8 2.8-1.6 0-2.8-1.3-2.8-2.8z"/><path class="c" d="m501.6 133.1c0-1.6 1.2-2.8 2.8-2.8 1.5 0 2.8 1.2 2.8 2.8 0 1.5-1.3 2.8-2.8 2.8-1.6 0-2.8-1.3-2.8-2.8z"/><path class="c" d="m476.3 133.1c0-1.6 1.2-2.8 2.8-2.8 1.5 0 2.8 1.2 2.8 2.8 0 1.5-1.3 2.8-2.8 2.8-1.6 0-2.8-1.3-2.8-2.8z"/><path class="c" d="m602.7 149.1c0-1.6 1.3-2.9 2.8-2.9 1.6 0 2.9 1.3 2.9 2.9 0 1.5-1.3 2.8-2.9 2.8-1.5 0-2.8-1.3-2.8-2.8z"/><path class="c" d="m577.4 149.1c0-1.6 1.3-2.9 2.9-2.9 1.5 0 2.8 1.3 2.8 2.9 0 1.5-1.3 2.8-2.8 2.8-1.6 0-2.9-1.3-2.9-2.8z"/><path class="c" d="m552.1 149.1c0-1.6 1.3-2.9 2.9-2.9 1.5 0 2.8 1.3 2.8 2.9 0 1.5-1.3 2.8-2.8 2.8-1.6 0-2.9-1.3-2.9-2.8z"/><path class="c" d="m526.9 149.1c0-1.6 1.2-2.9 2.8-2.9 1.5 0 2.8 1.3 2.8 2.9 0 1.5-1.3 2.8-2.8 2.8-1.6 0-2.8-1.3-2.8-2.8z"/><path class="c" d="m501.6 149.1c0-1.6 1.2-2.9 2.8-2.9 1.5 0 2.8 1.3 2.8 2.9 0 1.5-1.3 2.8-2.8 2.8-1.6 0-2.8-1.3-2.8-2.8z"/><path class="c" d="m476.3 149.1c0-1.6 1.2-2.9 2.8-2.9 1.5 0 2.8 1.3 2.8 2.9 0 1.5-1.3 2.8-2.8 2.8-1.6 0-2.8-1.3-2.8-2.8z"/><g clip-path="url(#cp1)"><path class="d" d="m141.2 669.3l-214.9 214.9"/><path class="d" d="m150.7 678.8l-214.9 214.9"/><path class="d" d="m160.1 688.2l-214.9 215"/><path class="d" d="m169.6 697.7l-214.9 214.9"/><path class="d" d="m179 707.1l-214.9 215"/><path class="d" d="m188.5 716.6l-214.9 214.9"/><path class="d" d="m197.9 726l-214.9 215"/><path class="d" d="m207.4 735.5l-214.9 214.9"/><path class="d" d="m216.9 744.9l-215 215"/><path class="d" d="m226.3 754.4l-214.9 214.9"/><path class="d" d="m235.8 763.8l-215 215"/><path class="d" d="m245.2 773.3l-214.9 214.9"/><path class="d" d="m254.7 782.7l-215 215"/><path class="d" d="m264.1 792.2l-214.9 214.9"/><path class="d" d="m273.6 801.6l-215 215"/><path class="d" d="m283 811.1l-214.9 214.9"/><path class="d" d="m292.5 820.5l-215 215"/><path class="d" d="m301.9 830l-214.9 214.9"/><path class="d" d="m311.4 839.4l-215 215"/><path class="d" d="m320.8 848.9l-214.9 214.9"/><path class="d" d="m330.3 858.3l-215 215"/><path class="d" d="m339.7 867.8l-214.9 214.9"/><path class="d" d="m349.2 877.3l-215 214.9"/><path class="d" d="m358.6 886.7l-214.9 214.9"/><path class="d" d="m368.1 896.2l-215 214.9"/><path class="d" d="m377.5 905.6l-214.9 214.9"/><path fill-rule="evenodd" class="e" d="m251.2 994.2c-57.5 57.4-150.6 57.4-208 0-57.4-57.5-57.4-150.5 0-208 57.4-57.4 150.5-57.4 207.9 0 57.5 57.5 57.5 150.5 0.1 208zm-44-44c33.2-33.1 33.2-86.9 0-120-33.1-33.2-86.9-33.2-120 0-33.2 33.1-33.2 86.9 0 120 33.1 33.2 86.9 33.2 120 0z"/></g><path class="d" d="m354.6 501.8c1.6-37.5 32.5-67.5 70.4-67.5 37.9 0 68.9 30 70.4 67.5h-28.1c-1.5-22-19.9-39.4-42.3-39.4-22.4 0-40.7 17.4-42.3 39.4z"/><path class="f" d="m432.7 1165.9c-70-7-124.7-66-124.7-137.9 0-71.8 54.7-130.9 124.7-137.8v55.7c-39.5 6.6-69.5 40.9-69.5 82.1 0 41.3 30 75.6 69.5 82.2z"/><path class="c" d="m467.1 1028c0 21.6-17.5 39.1-39.1 39.1-21.5 0-39-17.5-39-39.1 0-21.5 17.5-39 39-39 21.6 0 39.1 17.5 39.1 39z"/><path class="f" d="m374.4 323.3c0 27.4-22.3 49.7-49.7 49.7-27.4 0-49.7-22.3-49.7-49.7 0-27.4 22.3-49.7 49.7-49.7 27.4 0 49.7 22.3 49.7 49.7z"/><path class="c" d="m280.3 1078.5h-167.2v-16.3h167.2c4.5 0 8.1 3.6 8.1 8.1 0 4.5-3.6 8.2-8.1 8.2z"/><path class="a" d="m429.8 171.7h-231.6v-22.6h231.6c6.2 0 11.3 5 11.3 11.3 0 6.2-5.1 11.3-11.3 11.3z"/><path class="d" d="m374.2 202.8c0 6.3-5.1 11.4-11.3 11.4h-179.5v-22.7h179.5c6.2 0 11.3 5.1 11.3 11.3z"/><path class="d" d="m515.7 958.4c6.2 0 11.3 5.1 11.3 11.4v179.5h-22.6v-179.5c0-6.3 5-11.4 11.3-11.4z"/><path class="a" d="m556.7 869.1c8.1 0 14.6 6.6 14.6 14.7v232.3h-29.3v-232.3c0-8.1 6.6-14.7 14.7-14.7z"/><path class="a" d="m232.1 701.6h-119v-199.9c0-32.8 26.6-59.5 59.5-59.5 32.8 0 59.5 26.7 59.5 59.5z"/><path class="d" d="m249.4 701.6h-118.9v-199.9c0-32.8 26.6-59.5 59.4-59.5 32.9 0 59.5 26.7 59.5 59.5z"/><path class="g" d="m392.7 792.5c0 15.6-12.6 28.1-28.1 28.1-15.5 0-28.1-12.5-28.1-28.1 0-15.5 12.6-28.1 28.1-28.1 15.5 0 28.1 12.6 28.1 28.1z"/><path class="h" d="m507.2 202.8c0 9.4-7.6 16.9-16.9 16.9-9.3 0-16.8-7.5-16.8-16.9 0-9.3 7.5-16.8 16.8-16.8 9.3 0 16.9 7.5 16.9 16.8z"/><path class="c" d="m107.9 88.9c72.6 7.2 129.3 68.4 129.3 142.9 0 74.5-56.7 135.7-129.3 142.9v-57.7c40.9-6.8 72.1-42.4 72.1-85.2 0-42.8-31.2-78.3-72.1-85.2z"/><path class="d" d="m107.9 183.6c24.5 2.4 43.7 23.1 43.7 48.2 0 25.2-19.2 45.8-43.7 48.2v-19.4c13.8-2.4 24.3-14.3 24.3-28.8 0-14.4-10.5-26.4-24.3-28.7z"/><path class="i" d="m448.2 308.6l6.3-7.5c3.3-3.9 9.3-3.9 12.6 0 3.3 4 9.4 4 12.7 0 3.3-3.9 9.3-3.9 12.6 0 3.3 4 9.4 4 12.7 0 3.3-3.9 9.3-3.9 12.6 0 3.3 4 9.4 4 12.7 0 3.3-3.9 9.3-3.9 12.6 0l6.3 7.5"/><path class="i" d="m448.2 319.1l6.3-7.5c3.3-3.9 9.3-3.9 12.6 0 3.3 3.9 9.4 3.9 12.7 0 3.3-3.9 9.3-3.9 12.6 0 3.3 3.9 9.4 3.9 12.7 0 3.3-3.9 9.3-3.9 12.6 0 3.3 3.9 9.4 3.9 12.7 0 3.3-3.9 9.3-3.9 12.6 0l6.3 7.5"/><path class="i" d="m465.1 815.7l6.3-7.4c3.3-4 9.4-4 12.7 0 3.3 3.9 9.3 3.9 12.6 0 3.3-4 9.3-4 12.7 0 3.3 3.9 9.3 3.9 12.6 0 3.3-4 9.3-4 12.7 0 3.3 3.9 9.3 3.9 12.6 0 3.3-4 9.3-4 12.7 0l6.3 7.4"/><path class="i" d="m465.1 826.2l6.3-7.5c3.3-3.9 9.4-3.9 12.7 0 3.3 3.9 9.3 3.9 12.6 0 3.3-3.9 9.3-3.9 12.7 0 3.3 3.9 9.3 3.9 12.6 0 3.3-3.9 9.3-3.9 12.7 0 3.3 3.9 9.3 3.9 12.6 0 3.3-3.9 9.3-3.9 12.7 0l6.3 7.5"/><path class="b" d="m1376.8 608.7l-25.2 25.2"/><path class="b" d="m1376.8 631.9l-25.2-25.2"/><path class="b" d="m1548.6 812.1l-25.1 25.2"/><path class="b" d="m1548.6 837.3l-25.1-25.2"/><path class="c" d="m1313.6 551.1c0 1.6-1.2 2.8-2.8 2.8-1.5 0-2.8-1.2-2.8-2.8 0-1.5 1.3-2.8 2.8-2.8 1.6 0 2.8 1.3 2.8 2.8z"/><path class="c" d="m1338.9 551.1c0 1.6-1.2 2.8-2.8 2.8-1.5 0-2.8-1.2-2.8-2.8 0-1.5 1.3-2.8 2.8-2.8 1.6 0 2.8 1.3 2.8 2.8z"/><path class="c" d="m1364.2 551.1c0 1.6-1.2 2.8-2.8 2.8-1.5 0-2.8-1.2-2.8-2.8 0-1.5 1.3-2.8 2.8-2.8 1.6 0 2.8 1.3 2.8 2.8z"/><path class="c" d="m1389.5 551.1c0 1.6-1.2 2.8-2.8 2.8-1.5 0-2.8-1.2-2.8-2.8 0-1.5 1.3-2.8 2.8-2.8 1.6 0 2.8 1.3 2.8 2.8z"/><path class="c" d="m1414.8 551.1c0 1.6-1.2 2.8-2.8 2.8-1.5 0-2.8-1.2-2.8-2.8 0-1.5 1.3-2.8 2.8-2.8 1.6 0 2.8 1.3 2.8 2.8z"/><path class="c" d="m1440.1 551.1c0 1.6-1.2 2.8-2.8 2.8-1.5 0-2.8-1.2-2.8-2.8 0-1.5 1.3-2.8 2.8-2.8 1.6 0 2.8 1.3 2.8 2.8z"/><path class="c" d="m1313.6 535.1c0 1.6-1.2 2.9-2.8 2.9-1.5 0-2.8-1.3-2.8-2.9 0-1.5 1.3-2.8 2.8-2.8 1.6 0 2.8 1.3 2.8 2.8z"/><path class="c" d="m1338.9 535.1c0 1.6-1.2 2.9-2.8 2.9-1.5 0-2.8-1.3-2.8-2.9 0-1.5 1.3-2.8 2.8-2.8 1.6 0 2.8 1.3 2.8 2.8z"/><path class="c" d="m1364.2 535.1c0 1.6-1.2 2.9-2.8 2.9-1.5 0-2.8-1.3-2.8-2.9 0-1.5 1.3-2.8 2.8-2.8 1.6 0 2.8 1.3 2.8 2.8z"/><path class="c" d="m1389.5 535.1c0 1.6-1.2 2.9-2.8 2.9-1.5 0-2.8-1.3-2.8-2.9 0-1.5 1.3-2.8 2.8-2.8 1.6 0 2.8 1.3 2.8 2.8z"/><path class="c" d="m1414.8 535.1c0 1.6-1.2 2.9-2.8 2.9-1.5 0-2.8-1.3-2.8-2.9 0-1.5 1.3-2.8 2.8-2.8 1.6 0 2.8 1.3 2.8 2.8z"/><path class="c" d="m1440.1 535.1c0 1.6-1.2 2.9-2.8 2.9-1.5 0-2.8-1.3-2.8-2.9 0-1.5 1.3-2.8 2.8-2.8 1.6 0 2.8 1.3 2.8 2.8z"/><path class="c" d="m1313.6 519.2c0 1.5-1.2 2.8-2.8 2.8-1.5 0-2.8-1.3-2.8-2.8 0-1.6 1.3-2.8 2.8-2.8 1.6 0 2.8 1.2 2.8 2.8z"/><path class="c" d="m1338.9 519.2c0 1.5-1.2 2.8-2.8 2.8-1.5 0-2.8-1.3-2.8-2.8 0-1.6 1.3-2.8 2.8-2.8 1.6 0 2.8 1.2 2.8 2.8z"/><path class="c" d="m1364.2 519.2c0 1.5-1.2 2.8-2.8 2.8-1.5 0-2.8-1.3-2.8-2.8 0-1.6 1.3-2.8 2.8-2.8 1.6 0 2.8 1.2 2.8 2.8z"/><path class="c" d="m1389.5 519.2c0 1.5-1.2 2.8-2.8 2.8-1.5 0-2.8-1.3-2.8-2.8 0-1.6 1.3-2.8 2.8-2.8 1.6 0 2.8 1.2 2.8 2.8z"/><path class="c" d="m1414.8 519.2c0 1.5-1.2 2.8-2.8 2.8-1.5 0-2.8-1.3-2.8-2.8 0-1.6 1.3-2.8 2.8-2.8 1.6 0 2.8 1.2 2.8 2.8z"/><path class="c" d="m1440.1 519.2c0 1.5-1.2 2.8-2.8 2.8-1.5 0-2.8-1.3-2.8-2.8 0-1.6 1.3-2.8 2.8-2.8 1.6 0 2.8 1.2 2.8 2.8z"/><path class="c" d="m1123.3 1084.9c0 1.6-1.3 2.8-2.8 2.8-1.6 0-2.9-1.2-2.9-2.8 0-1.5 1.3-2.8 2.9-2.8 1.5 0 2.8 1.3 2.8 2.8z"/><path class="c" d="m1148.6 1084.9c0 1.6-1.3 2.8-2.9 2.8-1.5 0-2.8-1.2-2.8-2.8 0-1.5 1.3-2.8 2.8-2.8 1.6 0 2.9 1.3 2.9 2.8z"/><path class="c" d="m1173.9 1084.9c0 1.6-1.3 2.8-2.9 2.8-1.5 0-2.8-1.2-2.8-2.8 0-1.5 1.3-2.8 2.8-2.8 1.6 0 2.9 1.3 2.9 2.8z"/><path class="c" d="m1199.1 1084.9c0 1.6-1.2 2.8-2.8 2.8-1.5 0-2.8-1.2-2.8-2.8 0-1.5 1.3-2.8 2.8-2.8 1.6 0 2.8 1.3 2.8 2.8z"/><path class="c" d="m1224.4 1084.9c0 1.6-1.2 2.8-2.8 2.8-1.5 0-2.8-1.2-2.8-2.8 0-1.5 1.3-2.8 2.8-2.8 1.6 0 2.8 1.3 2.8 2.8z"/><path class="c" d="m1249.7 1084.9c0 1.6-1.2 2.8-2.8 2.8-1.5 0-2.8-1.2-2.8-2.8 0-1.5 1.3-2.8 2.8-2.8 1.6 0 2.8 1.3 2.8 2.8z"/><path class="c" d="m1123.3 1068.9c0 1.6-1.3 2.9-2.8 2.9-1.6 0-2.9-1.3-2.9-2.9 0-1.5 1.3-2.8 2.9-2.8 1.5 0 2.8 1.3 2.8 2.8z"/><path class="c" d="m1148.6 1068.9c0 1.6-1.3 2.9-2.9 2.9-1.5 0-2.8-1.3-2.8-2.9 0-1.5 1.3-2.8 2.8-2.8 1.6 0 2.9 1.3 2.9 2.8z"/><path class="c" d="m1173.9 1068.9c0 1.6-1.3 2.9-2.9 2.9-1.5 0-2.8-1.3-2.8-2.9 0-1.5 1.3-2.8 2.8-2.8 1.6 0 2.9 1.3 2.9 2.8z"/><path class="c" d="m1199.1 1068.9c0 1.6-1.2 2.9-2.8 2.9-1.5 0-2.8-1.3-2.8-2.9 0-1.5 1.3-2.8 2.8-2.8 1.6 0 2.8 1.3 2.8 2.8z"/><path class="c" d="m1224.4 1068.9c0 1.6-1.2 2.9-2.8 2.9-1.5 0-2.8-1.3-2.8-2.9 0-1.5 1.3-2.8 2.8-2.8 1.6 0 2.8 1.3 2.8 2.8z"/><path class="c" d="m1249.7 1068.9c0 1.6-1.2 2.9-2.8 2.9-1.5 0-2.8-1.3-2.8-2.9 0-1.5 1.3-2.8 2.8-2.8 1.6 0 2.8 1.3 2.8 2.8z"/><g clip-path="url(#cp2)"><path class="d" d="m1584.8 548.7l214.9-214.9"/><path class="d" d="m1575.3 539.2l214.9-214.9"/><path class="d" d="m1565.9 529.8l214.9-215"/><path class="d" d="m1556.4 520.3l214.9-214.9"/><path class="d" d="m1547 510.9l214.9-215"/><path class="d" d="m1537.5 501.4l214.9-214.9"/><path class="d" d="m1528.1 492l214.9-215"/><path class="d" d="m1518.6 482.5l214.9-214.9"/><path class="d" d="m1509.1 473.1l215-215"/><path class="d" d="m1499.7 463.6l214.9-214.9"/><path class="d" d="m1490.2 454.2l215-215"/><path class="d" d="m1480.8 444.7l214.9-214.9"/><path class="d" d="m1471.3 435.3l215-215"/><path class="d" d="m1461.9 425.8l214.9-214.9"/><path class="d" d="m1452.4 416.4l215-215"/><path class="d" d="m1443 406.9l214.9-214.9"/><path class="d" d="m1433.5 397.5l215-215"/><path class="d" d="m1424.1 388l214.9-214.9"/><path class="d" d="m1414.6 378.6l215-215"/><path class="d" d="m1405.2 369.1l214.9-214.9"/><path class="d" d="m1395.7 359.7l215-215"/><path class="d" d="m1386.3 350.2l214.9-214.9"/><path class="d" d="m1376.8 340.7l215-214.9"/><path class="d" d="m1367.4 331.3l214.9-214.9"/><path class="d" d="m1357.9 321.8l215-214.9"/><path class="d" d="m1348.5 312.4l214.9-214.9"/><path fill-rule="evenodd" class="e" d="m1474.8 223.8c57.5-57.4 150.6-57.4 208 0 57.4 57.5 57.4 150.5 0 208-57.4 57.4-150.5 57.4-207.9 0-57.5-57.5-57.5-150.5-0.1-208zm44 44c-33.2 33.1-33.2 86.9 0 120 33.1 33.2 86.9 33.2 120 0 33.2-33.1 33.2-86.9 0-120-33.1-33.2-86.9-33.2-120 0z"/></g><g clip-path="url(#cp3)"><path class="d" d="m869 1370.1l214.9-214.9"/><path class="d" d="m859.5 1360.7l214.9-214.9"/><path class="d" d="m850.1 1351.2l214.9-214.9"/><path class="d" d="m840.6 1341.8l214.9-214.9"/><path class="d" d="m831.1 1332.3l215-214.9"/><path class="d" d="m821.7 1322.9l214.9-214.9"/><path class="d" d="m812.2 1313.4l215-214.9"/><path class="d" d="m802.8 1304l214.9-214.9"/><path class="d" d="m793.3 1294.5l215-214.9"/><path class="d" d="m783.9 1285.1l214.9-214.9"/><path class="d" d="m774.4 1275.6l215-214.9"/><path class="d" d="m765 1266.2l214.9-214.9"/><path class="d" d="m755.5 1256.7l215-214.9"/><path class="d" d="m746.1 1247.3l214.9-214.9"/><path class="d" d="m736.6 1237.8l215-214.9"/><path class="d" d="m727.2 1228.4l214.9-214.9"/><path class="d" d="m717.7 1218.9l215-214.9"/><path class="d" d="m708.3 1209.5l214.9-214.9"/><path class="d" d="m698.8 1200l215-214.9"/><path class="d" d="m689.4 1190.6l214.9-214.9"/><path class="d" d="m679.9 1181.1l215-214.9"/><path class="d" d="m670.5 1171.7l214.9-214.9"/><path class="d" d="m661 1162.2l215-214.9"/><path class="d" d="m651.6 1152.8l214.9-215"/><path class="d" d="m642.1 1143.3l214.9-214.9"/><path class="d" d="m632.7 1133.9l214.9-215"/><path fill-rule="evenodd" class="e" d="m759 1045.3c57.5-57.4 150.5-57.4 208 0 57.4 57.4 57.4 150.5 0 207.9-57.5 57.4-150.5 57.4-208 0-57.4-57.4-57.4-150.5 0-207.9zm44 44c-33.2 33.1-33.2 86.8 0 120 33.1 33.1 86.9 33.1 120 0 33.2-33.2 33.2-86.9 0-120-33.1-33.2-86.9-33.2-120 0z"/></g><path class="d" d="m1371.4 716.2c-1.6 37.5-32.5 67.5-70.4 67.5-37.9 0-68.9-30-70.4-67.5h28.1c1.5 22 19.9 39.4 42.3 39.4 22.4 0 40.7-17.4 42.3-39.4z"/><path class="c" d="m669.7 895.8c37.6 1.5 67.5 32.4 67.5 70.4 0 37.9-29.9 68.8-67.5 70.4v-28.2c22.1-1.5 39.5-19.8 39.5-42.2 0-22.4-17.4-40.8-39.5-42.3z"/><path class="f" d="m1293.4 52.7c69.9 6.9 124.5 65.9 124.5 137.6 0 71.6-54.6 130.6-124.5 137.5v-55.6c39.4-6.6 69.3-40.8 69.3-81.9 0-41.3-29.9-75.5-69.3-82z"/><path class="c" d="m1259.1 190.3c0-21.6 17.4-39 38.9-39 21.6 0 39 17.4 39 39 0 21.5-17.4 38.9-39 38.9-21.5 0-38.9-17.4-38.9-38.9z"/><path class="f" d="m1351.6 894.7c0-27.4 22.3-49.7 49.7-49.7 27.4 0 49.7 22.3 49.7 49.7 0 27.4-22.3 49.7-49.7 49.7-27.4 0-49.7-22.3-49.7-49.7z"/><path class="c" d="m1445.7 139.5h167.2v16.3h-167.2c-4.5 0-8.1-3.6-8.1-8.1 0-4.5 3.6-8.2 8.1-8.2z"/><path class="a" d="m1296.2 1046.3h231.6v22.6h-231.6c-6.2 0-11.3-5-11.3-11.3 0-6.2 5.1-11.3 11.3-11.3z"/><path class="d" d="m1351.8 1015.2c0-6.3 5.1-11.4 11.3-11.4h179.5v22.7h-179.5c-6.2 0-11.3-5.1-11.3-11.3z"/><path class="d" d="m1210.3 259.6c-6.2 0-11.3-5.1-11.3-11.4v-179.5h22.6v179.5c0 6.3-5 11.4-11.3 11.4z"/><path class="a" d="m1169.3 348.9c-8.1 0-14.6-6.6-14.6-14.7v-232.3h29.3v232.3c0 8.1-6.6 14.7-14.7 14.7z"/><path class="a" d="m1493.9 516.4h119v199.9c0 32.8-26.6 59.5-59.5 59.5-32.8 0-59.5-26.7-59.5-59.5z"/><path class="f" d="m995.1 0.6h119v199.9c0 32.8-26.7 59.5-59.5 59.5-32.9 0-59.5-26.7-59.5-59.5z"/><path class="d" d="m980.9 34.4h118.9v200c0 32.8-26.6 59.4-59.4 59.4-32.9 0-59.5-26.6-59.5-59.4z"/><path class="d" d="m1476.6 516.4h118.9v199.9c0 32.8-26.6 59.5-59.4 59.5-32.9 0-59.5-26.7-59.5-59.5z"/><path class="g" d="m1333.3 425.5c0-15.6 12.6-28.1 28.1-28.1 15.5 0 28.1 12.5 28.1 28.1 0 15.5-12.6 28.1-28.1 28.1-15.5 0-28.1-12.6-28.1-28.1z"/><path class="j" d="m788.5 309c0-15.5 12.6-28.1 28.1-28.1 15.5 0 28.1 12.6 28.1 28.1 0 15.5-12.6 28.1-28.1 28.1-15.5 0-28.1-12.6-28.1-28.1z"/><path class="h" d="m1218.8 1015.2c0-9.4 7.6-16.9 16.9-16.9 9.3 0 16.8 7.5 16.8 16.9 0 9.3-7.5 16.8-16.8 16.8-9.3 0-16.9-7.5-16.9-16.8z"/><path class="c" d="m1618.1 1129.1c-72.6-7.2-129.3-68.4-129.3-142.9 0-74.5 56.7-135.7 129.3-142.9v57.7c-40.9 6.8-72.1 42.4-72.1 85.2 0 42.8 31.2 78.3 72.1 85.2z"/><path class="d" d="m1618.1 1034.4c-24.5-2.4-43.7-23.1-43.7-48.2 0-25.2 19.2-45.8 43.7-48.2v19.4c-13.8 2.4-24.3 14.3-24.3 28.8 0 14.4 10.5 26.4 24.3 28.7z"/><path class="i" d="m1277.8 909.4l-6.3 7.5c-3.3 3.9-9.3 3.9-12.6 0-3.3-4-9.4-4-12.7 0-3.3 3.9-9.3 3.9-12.6 0-3.3-4-9.4-4-12.7 0-3.3 3.9-9.3 3.9-12.6 0-3.3-4-9.4-4-12.7 0-3.3 3.9-9.3 3.9-12.6 0l-6.3-7.5"/><path class="i" d="m1277.8 898.9l-6.3 7.5c-3.3 3.9-9.3 3.9-12.6 0-3.3-3.9-9.4-3.9-12.7 0-3.3 3.9-9.3 3.9-12.6 0-3.3-3.9-9.4-3.9-12.7 0-3.3 3.9-9.3 3.9-12.6 0-3.3-3.9-9.4-3.9-12.7 0-3.3 3.9-9.3 3.9-12.6 0l-6.3-7.5"/><path class="i" d="m1260.9 402.3l-6.3 7.4c-3.3 4-9.4 4-12.7 0-3.3-3.9-9.3-3.9-12.6 0-3.3 4-9.3 4-12.7 0-3.3-3.9-9.3-3.9-12.6 0-3.3 4-9.3 4-12.7 0-3.3-3.9-9.3-3.9-12.6 0-3.3 4-9.3 4-12.7 0l-6.3-7.4"/><path class="i" d="m1260.9 391.8l-6.3 7.5c-3.3 3.9-9.4 3.9-12.7 0-3.3-3.9-9.3-3.9-12.6 0-3.3 3.9-9.3 3.9-12.7 0-3.3-3.9-9.3-3.9-12.6 0-3.3 3.9-9.3 3.9-12.7 0-3.3-3.9-9.3-3.9-12.6 0-3.3 3.9-9.3 3.9-12.7 0l-6.3-7.5"/><path class="a" d="m954.5 109.3c-7 70.1-66 124.7-137.9 124.7-71.8 0-130.9-54.6-137.8-124.7h55.7c6.6 39.5 40.8 69.5 82.1 69.5 41.3 0 75.6-30 82.2-69.5z"/><path class="f" d="m1084.4 890.2c0 7.7-6.2 14-13.9 14-7.7 0-14-6.3-14-14 0-7.7 6.3-14 14-14 7.7 0 13.9 6.3 13.9 14z"/></svg>